# Blender 3.4.1
# www.blender.org
mtllib fridge.mtl
o Cube
v 0.300000 1.784708 -0.350000
v 0.286269 0.184708 -0.350000
v 0.300000 1.784708 0.350000
v 0.286269 0.184708 0.350000
v -0.300000 1.781165 -0.347893
v -0.300000 0.184708 -0.347893
v -0.300000 1.781165 0.347083
v -0.300000 0.184708 0.347083
v 0.241604 0.184708 -0.350000
v 0.241604 1.784708 0.350000
v 0.241604 0.184708 0.350000
v 0.241604 1.784708 -0.350000
v 0.286269 0.815385 -0.350000
v 0.286269 0.815385 0.350000
v 0.286269 0.830896 -0.350000
v 0.286269 0.830896 0.350000
v 0.286269 0.208668 -0.350000
v 0.286269 0.208668 0.350000
v 0.241604 0.208668 -0.350000
v 0.241604 0.208668 0.350000
v 0.238585 0.184708 -0.347893
v 0.238585 1.781165 0.347083
v 0.238585 0.184708 0.347083
v 0.238585 1.781165 -0.347893
v 0.238585 0.208668 0.347083
v 0.238585 0.208668 -0.347893
v 0.306030 1.784708 -0.350000
v 0.306030 1.784708 0.350000
v 0.306030 0.815385 -0.350000
v 0.306030 0.815385 0.350000
v 0.306030 0.830896 -0.350000
v 0.306030 0.830896 0.350000
v 0.306030 0.208668 -0.350000
v 0.306030 0.208668 0.350000
v 0.306038 1.276233 0.309307
v 0.306038 1.276233 0.270907
v 0.306030 1.001281 0.350000
v 0.306079 1.001281 0.309307
v 0.306079 1.001281 0.270907
v 0.309468 1.235415 0.306401
v 0.309468 1.235415 0.273814
v 0.307806 1.037130 0.348044
v 0.309337 1.037130 0.306454
v 0.309337 1.037130 0.273761
v 0.306428 0.772725 0.309307
v 0.306428 0.772725 0.270907
v 0.308547 0.736102 0.307008
v 0.308547 0.736102 0.273207
v 0.307025 0.611985 0.349979
v 0.308547 0.611985 0.307008
v 0.308547 0.611985 0.273207
v 0.306121 0.572349 0.350000
v 0.306349 0.572349 0.309307
v 0.306349 0.572349 0.270907
v 0.321783 1.276233 0.270907
v 0.321783 1.276233 0.309307
v 0.324515 1.037130 0.307804
v 0.321848 1.001281 0.309307
v 0.324515 1.037130 0.272411
v 0.321848 1.001281 0.270907
v 0.324619 1.235415 0.307737
v 0.324619 1.235415 0.272477
v 0.322255 0.772725 0.270907
v 0.322255 0.772725 0.309307
v 0.324210 0.736102 0.308179
v 0.324210 0.736102 0.272036
v 0.324210 0.611985 0.272036
v 0.324210 0.611985 0.308179
v 0.322164 0.572349 0.309307
v 0.322164 0.572349 0.270907
v 0.334058 1.276233 0.270907
v 0.334058 1.276233 0.309307
v 0.335878 1.037130 0.307731
v 0.334129 1.001281 0.309306
v 0.335878 1.037130 0.272484
v 0.334129 1.001281 0.270909
v 0.335941 1.235415 0.307663
v 0.335941 1.235415 0.272552
v 0.334547 0.772725 0.270907
v 0.334547 0.772725 0.309307
v 0.335784 0.736102 0.308028
v 0.335784 0.736102 0.272186
v 0.335784 0.611985 0.272186
v 0.335784 0.611985 0.308028
v 0.334453 0.572349 0.309307
v 0.334453 0.572349 0.270907
v 0.331248 1.136886 0.276885
v 0.331248 1.136886 0.303329
v 0.339775 1.136886 0.303122
v 0.339775 1.136886 0.277093
v 0.339155 1.186151 0.303892
v 0.330164 1.186151 0.276151
v 0.330164 1.186151 0.304063
v 0.339155 1.186151 0.276323
v 0.330139 1.087008 0.276134
v 0.330139 1.087008 0.304080
v 0.339141 1.087008 0.276305
v 0.339141 1.087008 0.303909
v 0.339775 1.111947 0.303122
v 0.331248 1.111947 0.276885
v 0.331248 1.111947 0.303329
v 0.339775 1.111947 0.277093
v 0.331248 1.161518 0.276885
v 0.331248 1.161518 0.303329
v 0.339775 1.161518 0.277093
v 0.339775 1.161518 0.303122
v 0.327255 0.674043 0.275959
v 0.327255 0.674043 0.304256
v 0.336352 0.674043 0.275959
v 0.336352 0.674043 0.304256
v 0.326614 0.705072 0.274960
v 0.326614 0.705072 0.305254
v 0.336292 0.705072 0.275313
v 0.336292 0.705072 0.304901
v 0.326614 0.643014 0.274960
v 0.326614 0.643014 0.305254
v 0.336292 0.643014 0.275313
v 0.336292 0.643014 0.304901
v 0.327052 0.689558 0.275541
v 0.327052 0.689558 0.304674
v 0.336352 0.689558 0.275959
v 0.336352 0.689558 0.304256
v 0.327052 0.658528 0.275541
v 0.327052 0.658528 0.304674
v 0.336352 0.658528 0.275959
v 0.336352 0.658528 0.304256
v 0.279569 0.184708 0.350000
v 0.291241 1.784708 -0.350000
v 0.279569 0.184708 -0.350000
v 0.291241 1.784708 0.350000
v 0.279569 0.815385 0.350000
v 0.279569 0.830896 0.350000
v 0.279569 0.208668 -0.350000
v 0.279569 0.208668 0.350000
v 0.300000 1.784708 0.341007
v 0.286269 0.830896 0.341007
v 0.286269 0.815385 0.341007
v 0.286269 0.208668 0.341007
v 0.291241 1.784708 0.341007
v 0.279569 0.815385 0.341007
v 0.279569 0.830896 0.341007
v 0.279569 0.208668 0.341007
vn -0.0000 1.0000 -0.0000
vn -0.5519 0.8339 -0.0000
vn -0.5402 0.8415 -0.0000
vn 0.0589 -0.0000 0.9983
vn -0.0000 -1.0000 -0.0000
vn -0.0000 -0.0000 1.0000
vn -0.0000 -0.0000 -1.0000
vn 1.0000 -0.0000 -0.0000
vn -0.5723 -0.0000 -0.8200
vn -0.6948 -0.0000 0.7192
vn -0.3795 0.9252 -0.0000
vn -0.4109 0.9117 -0.0000
vn 1.0000 0.0002 -0.0011
vn 0.9993 -0.0354 0.0093
vn 0.9998 -0.0210 0.0054
vn 1.0000 -0.0001 -0.0007
vn 0.9997 -0.0243 0.0061
vn 0.9994 -0.0327 0.0085
vn 1.0000 0.0002 -0.0004
vn 0.9998 -0.0191 0.0102
vn 0.9999 -0.0120 0.0064
vn 1.0000 0.0001 -0.0003
vn 0.9999 -0.0134 0.0071
vn -0.0371 -0.0488 -0.9981
vn -0.0173 -0.0414 -0.9990
vn -0.0024 -0.0568 -0.9984
vn -1.0000 -0.0000 -0.0000
vn 0.0002 -0.0000 1.0000
vn -0.0230 0.0548 -0.9982
vn -0.0089 0.0585 -0.9982
vn 0.0079 0.0600 -0.9982
vn 0.0031 0.0427 -0.9991
vn -0.0173 -0.0414 0.9990
vn -0.0024 -0.0568 0.9984
vn 0.0153 -0.0654 0.9977
vn 0.0063 -0.0326 0.9994
vn -0.0089 0.0585 0.9982
vn -0.0230 0.0548 0.9982
vn 0.0031 0.0427 0.9991
vn 0.0079 0.0600 0.9982
vn -0.0371 0.0452 0.9983
vn -0.0173 0.0383 0.9991
vn -0.0024 0.0547 0.9985
vn -0.0432 -0.0580 0.9974
vn -0.0089 -0.0552 0.9984
vn -0.0227 -0.0497 0.9985
vn -0.0371 0.0452 -0.9983
vn -0.0024 0.0547 -0.9985
vn -0.0173 0.0383 -0.9991
vn -0.0435 0.0642 0.9970
vn -0.0371 -0.0488 0.9981
vn -0.0432 -0.0580 -0.9974
vn -0.0227 -0.0497 -0.9985
vn -0.0089 -0.0552 -0.9984
vn -0.0435 0.0642 -0.9970
vn 0.9985 0.0548 -0.0000
vn 0.9989 0.0461 -0.0000
vn 0.9988 -0.0487 -0.0000
vn 0.9984 -0.0562 -0.0000
vn 0.9997 0.0259 -0.0000
vn 0.9994 0.0338 -0.0000
vn 0.9994 -0.0335 -0.0000
vn 0.9997 -0.0258 -0.0000
vn 0.0063 -0.0326 -0.9994
vn 0.0153 -0.0654 -0.9977
vn 0.0080 -0.0583 0.9983
vn 0.0032 -0.0392 0.9992
vn 0.0032 -0.0392 -0.9992
vn 0.0080 -0.0583 -0.9983
vn 0.0063 0.0301 0.9995
vn 0.0153 0.0642 0.9978
vn 0.0153 0.0642 -0.9978
vn 0.0063 0.0301 -0.9995
vn -0.9968 0.0802 -0.0000
vn -0.9937 0.1120 -0.0000
vn 0.0173 -0.0502 0.9986
vn 0.0163 -0.0547 0.9984
vn 0.9989 -0.0468 -0.0000
vn 0.0163 -0.0547 -0.9984
vn 0.0173 -0.0502 -0.9986
vn -0.9985 0.0548 -0.0000
vn -0.9970 0.0772 -0.0000
vn 0.0314 0.0696 -0.9971
vn 0.0323 0.0666 -0.9973
vn 0.0323 0.0666 0.9973
vn 0.0314 0.0696 0.9971
vn 0.9999 -0.0107 -0.0000
vn 0.0229 0.0156 -0.9996
vn 0.0243 -0.0000 -0.9997
vn 0.0230 0.0147 -0.9996
vn 0.9999 0.0129 -0.0000
vn 0.0230 0.0147 0.9996
vn 0.0243 -0.0000 0.9997
vn 0.0229 0.0156 0.9996
vn -0.9997 -0.0224 -0.0000
vn -0.9937 -0.1118 -0.0000
vn -0.9968 -0.0798 -0.0000
vn 0.9989 0.0465 -0.0000
vn 0.0229 -0.0154 -0.9996
vn 0.0230 -0.0145 -0.9996
vn 0.0230 -0.0145 0.9996
vn 0.0229 -0.0154 0.9996
vn 0.0172 0.0504 0.9986
vn 0.0162 0.0549 0.9984
vn 0.0162 0.0549 -0.9984
vn 0.0172 0.0504 -0.9986
vn 0.9999 -0.0130 -0.0000
vn -0.9997 0.0226 -0.0000
vn 1.0000 0.0020 -0.0000
vn 0.0316 -0.0260 0.9992
vn 0.0320 -0.0265 0.9991
vn 0.0227 -0.0000 0.9997
vn 0.0320 -0.0265 -0.9991
vn 0.0316 -0.0260 -0.9992
vn 0.0227 -0.0000 -0.9997
vn -0.9998 -0.0210 -0.0000
vn -0.9970 -0.0772 -0.0000
vn -0.9985 -0.0548 -0.0000
vn 0.0323 -0.0666 -0.9973
vn 0.0314 -0.0696 -0.9971
vn 0.0314 -0.0696 0.9971
vn 0.0323 -0.0666 0.9973
vn 0.9999 0.0107 -0.0000
vn 1.0000 -0.0020 -0.0000
vn 0.0316 0.0260 0.9992
vn 0.0320 0.0265 0.9991
vn 0.0320 0.0265 -0.9991
vn 0.0316 0.0260 -0.9992
vn -0.9998 0.0210 -0.0000
vn 0.9999 -0.0122 -0.0000
vn -0.9999 0.0144 -0.0000
vt 0.625000 0.500000
vt 0.375000 0.500000
vt 0.625000 0.750000
vt 0.375000 0.750000
vt 0.875000 0.500000
vt 0.625000 0.250000
vt 0.125000 0.500000
vt 0.375000 0.250000
vt 0.875000 0.750000
vt 0.625000 1.000000
vt 0.625000 0.000000
vt 0.375000 1.000000
vt 0.125000 0.750000
vt 0.375000 0.000000
vt 0.350668 0.500000
vt 0.375000 0.475668
vt 0.625000 0.774332
vt 0.649332 0.750000
vt 0.375000 0.774332
vt 0.350668 0.750000
vt 0.625000 0.475668
vt 0.649332 0.500000
vt 0.473543 0.500000
vt 0.473543 0.750000
vt 0.475967 0.500000
vt 0.475967 0.750000
vt 0.378744 0.500000
vt 0.378744 0.750000
vt 0.378744 0.475668
vt 0.378744 0.774332
vt 0.375000 0.474410
vt 0.349410 0.500000
vt 0.625000 0.775590
vt 0.650590 0.750000
vt 0.375000 0.775590
vt 0.349410 0.750000
vt 0.650590 0.500000
vt 0.625000 0.474410
vt 0.378744 0.775590
vt 0.378744 0.474410
vt 0.625000 0.500000
vt 0.625000 0.750000
vt 0.473543 0.500000
vt 0.473543 0.750000
vt 0.475967 0.500000
vt 0.475967 0.750000
vt 0.378744 0.500000
vt 0.378744 0.750000
vt 0.545551 0.735467
vt 0.545551 0.721752
vt 0.502590 0.750000
vt 0.502590 0.735467
vt 0.502590 0.721752
vt 0.539173 0.735467
vt 0.539173 0.721752
vt 0.508191 0.750000
vt 0.508191 0.735467
vt 0.508191 0.721752
vt 0.466878 0.735467
vt 0.466878 0.721753
vt 0.461155 0.735467
vt 0.461155 0.721753
vt 0.441762 0.750000
vt 0.441762 0.735467
vt 0.441762 0.721753
vt 0.435569 0.750000
vt 0.435569 0.735467
vt 0.435569 0.721753
vt 0.545551 0.721752
vt 0.545551 0.735467
vt 0.508191 0.735467
vt 0.502590 0.735467
vt 0.508191 0.721752
vt 0.502590 0.721752
vt 0.539173 0.735467
vt 0.539173 0.721752
vt 0.466878 0.721753
vt 0.466878 0.735467
vt 0.461155 0.735467
vt 0.461155 0.721753
vt 0.441762 0.721753
vt 0.441762 0.735467
vt 0.435569 0.735467
vt 0.435569 0.721753
vt 0.545551 0.721752
vt 0.545551 0.735467
vt 0.508191 0.735467
vt 0.502590 0.735467
vt 0.508191 0.721752
vt 0.502590 0.721752
vt 0.539173 0.735467
vt 0.539173 0.721752
vt 0.466878 0.721753
vt 0.466878 0.735467
vt 0.461155 0.735467
vt 0.461155 0.721753
vt 0.441762 0.721753
vt 0.441762 0.735467
vt 0.435569 0.735467
vt 0.435569 0.721753
vt 0.523778 0.721752
vt 0.523778 0.735467
vt 0.523778 0.735467
vt 0.523778 0.721752
vt 0.531476 0.735467
vt 0.531475 0.721752
vt 0.531475 0.735467
vt 0.531475 0.721752
vt 0.515984 0.721752
vt 0.515984 0.735467
vt 0.515984 0.721752
vt 0.515984 0.735467
vt 0.519881 0.735467
vt 0.519881 0.721752
vt 0.519881 0.735467
vt 0.519881 0.721752
vt 0.527627 0.721752
vt 0.527627 0.735467
vt 0.527627 0.721752
vt 0.527627 0.735467
vt 0.451459 0.721753
vt 0.451459 0.735467
vt 0.451459 0.721753
vt 0.451459 0.735467
vt 0.456307 0.721753
vt 0.456307 0.735467
vt 0.456307 0.721753
vt 0.456307 0.735467
vt 0.446610 0.721753
vt 0.446610 0.735467
vt 0.446610 0.721753
vt 0.446610 0.735467
vt 0.453883 0.721753
vt 0.453883 0.735467
vt 0.453883 0.721753
vt 0.453883 0.735467
vt 0.449034 0.721753
vt 0.449035 0.735467
vt 0.449034 0.721753
vt 0.449035 0.735467
vt 0.375000 0.753650
vt 0.371350 0.750000
vt 0.625000 0.496350
vt 0.628650 0.500000
vt 0.375000 0.496350
vt 0.371350 0.500000
vt 0.625000 0.753650
vt 0.628650 0.750000
vt 0.473543 0.753650
vt 0.475967 0.753650
vt 0.378744 0.496350
vt 0.378744 0.753650
vt 0.625000 0.750000
vt 0.475967 0.750000
vt 0.473543 0.750000
vt 0.378744 0.750000
vt 0.625000 0.753650
vt 0.628650 0.750000
vt 0.473543 0.753650
vt 0.475967 0.753650
vt 0.378744 0.753650
s 1
usemtl Material
f 5/5/1 7/9/1 22/34/2 24/37/3
f 3/3/4 16/26/4 32/46/4 37/51/4 42/56/4 28/42/4
f 129/146/5 127/142/5 11/20/5 9/15/5
f 14/24/1 30/44/1 29/43/1 13/23/1
f 7/10/6 8/12/6 23/35/6 25/39/6 22/33/6
f 5/6/7 24/38/7 26/40/7 21/31/7 6/8/7
f 18/28/8 4/4/8 2/2/8 17/27/8
f 129/145/7 133/151/7 17/27/7 2/2/7
f 21/31/9 26/40/9 19/29/9 9/16/9
f 127/141/6 134/152/6 20/30/6 11/19/6
f 11/19/10 20/30/10 25/39/10 23/35/10
f 22/33/10 25/39/10 20/30/10 10/17/10
f 130/148/1 3/3/1 1/1/1 128/144/1
f 11/20/5 23/36/5 21/32/5 9/15/5
f 16/26/8 14/24/8 13/23/8 15/25/8
f 23/36/5 8/13/5 6/7/5 21/32/5
f 3/3/1 28/42/1 27/41/1 1/1/1
f 22/34/2 10/18/11 12/22/12 24/37/3
f 16/26/5 15/25/5 31/45/5 32/46/5
f 18/28/5 17/27/5 33/47/5 34/48/5
f 44/58/1 43/57/1 57/71/1 59/73/1
f 28/42/13 42/56/14 43/57/15 40/54/16 35/49/13 36/50/13 41/55/16 44/58/16 39/53/13 38/52/17 37/51/18 32/46/13 31/45/13 27/41/13
f 1/1/7 27/41/7 31/45/7 15/25/7
f 44/58/16 41/55/16 40/54/16 43/57/15
f 53/67/5 54/68/5 70/84/5 69/83/5
f 38/52/17 43/57/15 42/56/14 37/51/18
f 24/38/9 12/21/9 19/29/9 26/40/9
f 128/143/7 1/1/7 15/25/7 13/23/7 17/27/7 133/151/7
f 46/60/1 45/59/1 64/78/1 63/77/1
f 30/44/19 49/63/20 50/64/21 47/61/22 45/59/19 46/60/19 48/62/22 51/65/22 54/68/19 53/67/23 52/66/20 34/48/19 33/47/19 29/43/19
f 51/65/22 48/62/22 47/61/22 50/64/21
f 48/62/24 46/60/24 63/77/25 66/80/26
f 53/67/23 50/64/21 49/63/20 52/66/20
f 7/11/27 5/6/27 6/8/27 8/14/27
f 14/24/28 18/28/28 34/48/28 52/66/28 49/63/28 30/44/28
f 13/23/7 29/43/7 33/47/7 17/27/7
f 131/149/6 132/150/6 130/147/6 10/17/6 20/30/6 134/152/6
f 60/74/29 59/73/30 75/89/31 76/90/32
f 64/78/33 65/79/34 81/95/35 80/94/36
f 57/71/37 58/72/38 74/88/39 73/87/40
f 63/77/1 64/78/1 80/94/1 79/93/1
f 50/64/41 53/67/41 69/83/42 68/82/43
f 40/54/5 41/55/5 62/76/5 61/75/5
f 38/52/5 39/53/5 60/74/5 58/72/5
f 35/49/44 40/54/44 61/75/45 56/70/46
f 54/68/47 51/65/47 67/81/48 70/84/49
f 51/65/1 50/64/1 68/82/1 67/81/1
f 43/57/50 38/52/50 58/72/38 57/71/37
f 47/61/5 48/62/5 66/80/5 65/79/5
f 45/59/51 47/61/51 65/79/34 64/78/33
f 41/55/52 36/50/52 55/69/53 62/76/54
f 39/53/55 44/58/55 59/73/30 60/74/29
f 36/50/1 35/49/1 56/70/1 55/69/1
f 78/92/56 71/85/57 72/86/57 77/91/56
f 76/90/58 75/89/59 73/87/59 74/88/58
f 82/96/60 79/93/61 80/94/61 81/95/60
f 86/100/62 83/97/63 84/98/63 85/99/62
f 66/80/26 63/77/25 79/93/64 82/96/65
f 58/72/5 60/74/5 76/90/5 74/88/5
f 56/70/46 61/75/45 77/91/66 72/86/67
f 62/76/54 55/69/53 71/85/68 78/92/69
f 68/82/43 69/83/42 85/99/70 84/98/71
f 70/84/49 67/81/48 83/97/72 86/100/73
f 55/69/1 56/70/1 72/86/1 71/85/1
f 69/83/5 70/84/5 86/100/5 85/99/5
f 96/110/74 95/109/74 59/73/75 57/71/75
f 91/105/76 77/91/66 61/75/45 93/107/77
f 98/112/78 73/87/59 75/89/59 97/111/78
f 92/106/79 62/76/54 78/92/69 94/108/80
f 116/130/81 115/129/81 67/81/82 68/82/82
f 115/129/83 117/131/84 83/97/72 67/81/48
f 118/132/85 116/130/86 68/82/43 84/98/71
f 118/132/87 84/98/63 83/97/63 117/131/87
f 100/114/88 87/101/89 90/104/89 102/116/90
f 106/120/91 89/103/8 90/104/8 105/119/91
f 99/113/92 89/103/93 88/102/93 101/115/94
f 104/118/95 103/117/95 87/101/27 88/102/27
f 61/75/96 62/76/96 92/106/97 93/107/97
f 77/91/56 91/105/98 94/108/98 78/92/56
f 103/117/99 92/106/79 94/108/80 105/119/100
f 106/120/101 91/105/76 93/107/77 104/118/102
f 73/87/40 98/112/103 96/110/104 57/71/37
f 59/73/30 95/109/105 97/111/106 75/89/31
f 99/113/107 98/112/78 97/111/78 102/116/107
f 101/115/108 100/114/108 95/109/74 96/110/74
f 88/102/27 87/101/27 100/114/108 101/115/108
f 89/103/8 99/113/107 102/116/107 90/104/8
f 98/112/103 99/113/92 101/115/94 96/110/104
f 95/109/105 100/114/88 102/116/90 97/111/106
f 89/103/93 106/120/101 104/118/102 88/102/93
f 87/101/89 103/117/99 105/119/100 90/104/89
f 93/107/97 92/106/97 103/117/95 104/118/95
f 91/105/98 106/120/91 105/119/91 94/108/98
f 122/136/109 110/124/8 109/123/8 121/135/109
f 122/136/110 120/134/111 108/122/112 110/124/112
f 119/133/113 121/135/114 109/123/115 107/121/115
f 120/134/116 119/133/116 107/121/27 108/122/27
f 65/79/117 66/80/117 111/125/118 112/126/118
f 66/80/26 82/96/65 113/127/119 111/125/120
f 81/95/35 65/79/34 112/126/121 114/128/122
f 81/95/60 114/128/123 113/127/123 82/96/60
f 126/140/124 118/132/87 117/131/87 125/139/124
f 126/140/125 124/138/126 116/130/86 118/132/85
f 123/137/127 125/139/128 117/131/84 115/129/83
f 124/138/129 123/137/129 115/129/81 116/130/81
f 112/126/118 111/125/118 119/133/116 120/134/116
f 111/125/120 113/127/119 121/135/114 119/133/113
f 114/128/122 112/126/121 120/134/111 122/136/110
f 114/128/123 122/136/109 121/135/109 113/127/123
f 108/122/27 107/121/27 123/137/129 124/138/129
f 107/121/115 109/123/115 125/139/128 123/137/127
f 110/124/112 108/122/112 124/138/126 126/140/125
f 110/124/8 126/140/124 125/139/124 109/123/8
f 131/149/8 134/152/8 142/161/8 140/159/8
f 12/21/7 128/143/7 133/151/7 19/29/7
f 130/147/130 132/150/130 141/160/130 139/157/130
f 10/18/11 130/148/1 128/144/1 12/22/12
f 4/4/6 18/28/6 134/152/6 127/141/6
f 9/16/7 19/29/7 133/151/7 129/145/7
f 14/24/6 16/26/6 132/150/6 131/149/6
f 2/2/5 4/4/5 127/142/5 129/146/5
f 137/155/6 140/159/6 142/161/6 138/156/6
f 135/153/6 139/157/6 141/160/6 136/154/6
f 14/24/5 131/149/5 140/159/5 137/155/5
f 16/26/131 3/3/131 135/153/131 136/154/131
f 18/28/27 14/24/27 137/155/27 138/156/27
f 134/152/1 18/28/1 138/156/1 142/161/1
f 132/150/1 16/26/1 136/154/1 141/160/1
f 3/3/5 130/148/5 139/158/5 135/153/5
