# Blender 3.4.1
# www.blender.org
mtllib table.mtl
o Cube
v 0.400000 0.794181 -0.400000
v 0.282254 0.094181 -0.282280
v 0.400000 0.794181 0.400000
v 0.282254 0.094181 0.282149
v -0.400000 0.794181 -0.400000
v -0.282175 0.094181 -0.282280
v -0.400000 0.794181 0.400000
v -0.282175 0.094181 0.282149
v 0.308799 0.753078 -0.308799
v -0.308799 0.753078 0.308799
v 0.308799 0.753078 0.308799
v -0.308799 0.753078 -0.308799
v -0.400000 0.755486 0.400000
v 0.400000 0.755486 -0.400000
v 0.400000 0.755486 0.400000
v -0.400000 0.755486 -0.400000
v -0.212588 0.094181 0.282149
v -0.212588 0.094181 -0.282280
v 0.282254 0.094181 0.219111
v -0.282175 0.094181 0.219111
v -0.212588 0.094181 0.219111
v 0.214334 0.094181 -0.282280
v -0.212588 0.094181 -0.222035
v 0.214334 0.094181 0.282149
v 0.214334 0.094181 0.219111
v 0.282254 0.094181 -0.222035
v -0.282175 0.094181 -0.222035
v 0.214334 0.094181 -0.222035
v 0.234482 0.685750 -0.308799
v -0.231110 0.684991 -0.308799
v -0.308799 0.684889 -0.242297
v -0.308799 0.687503 0.238352
v 0.235169 0.753078 0.308799
v 0.308799 0.753078 0.239619
v -0.232421 0.684484 0.308799
v 0.308799 0.753078 -0.243463
v 0.308799 0.685750 0.239823
v 0.234482 0.685750 0.308799
v 0.308799 0.684425 -0.243381
v -0.232550 0.753078 0.308799
v -0.231883 0.685370 -0.275839
v 0.271640 0.685087 -0.243130
v 0.271640 0.685750 0.239823
v 0.234482 0.685750 0.274311
v 0.234482 0.685750 -0.275839
v -0.232539 0.685117 0.274311
v -0.270728 0.685320 -0.242588
v -0.270728 0.686626 0.239088
v -0.270654 0.720917 0.239095
v -0.232583 0.720041 0.239831
v -0.232465 0.719408 0.274319
v -0.232583 0.720041 -0.242872
v 0.234555 0.720041 0.239831
v 0.271714 0.719378 -0.243123
v 0.234555 0.720041 -0.242872
v 0.234555 0.720041 0.274319
v -0.231810 0.719661 -0.275832
v 0.271714 0.720041 0.239831
v 0.234555 0.720041 -0.275832
v -0.270654 0.719610 -0.242581
v -0.231103 0.753078 -0.308799
v 0.234592 0.753078 -0.308799
v -0.308799 0.753078 0.238350
v -0.308799 0.753078 -0.242148
v -0.300359 0.684985 -0.242362
v -0.301077 0.687503 0.238352
v -0.301077 0.753078 0.238350
v -0.301077 0.753078 -0.242148
v -0.232451 0.684646 0.299975
v 0.234482 0.685750 0.300151
v 0.235169 0.753078 0.300151
v -0.232550 0.753078 0.300151
v 0.301556 0.685750 0.239823
v 0.301556 0.753078 0.239619
v 0.301938 0.684547 -0.243335
v 0.301556 0.753078 -0.243463
v 0.234482 0.685750 -0.301500
v -0.231269 0.685069 -0.302013
v -0.231103 0.753078 -0.301500
v 0.234592 0.753078 -0.301500
vn -0.0000 1.0000 -0.0000
vn -0.0000 -0.0000 1.0000
vn -1.0000 -0.0000 -0.0000
vn -0.0000 -1.0000 -0.0000
vn 1.0000 -0.0000 -0.0000
vn -0.0000 -0.0000 -1.0000
vn -0.0188 -0.0407 -0.9990
vn 0.9989 -0.0410 -0.0224
vn -0.9990 -0.0410 0.0201
vn 0.0194 -0.0410 0.9990
vn -0.0000 -0.9997 -0.0264
vn 0.0264 -0.9997 -0.0000
vn -0.0264 -0.9997 -0.0000
vn -0.0000 -0.9997 0.0264
vn -0.9994 0.0328 0.0080
vn -0.9994 0.0328 -0.0083
vn 0.0081 0.0337 -0.9994
vn -0.0090 -1.0000 0.0019
vn 0.0121 0.0342 0.9993
vn -1.0000 -0.0054 -0.0007
vn -0.0042 0.0336 0.9994
vn 0.9995 0.0318 0.0029
vn 0.9994 0.0324 0.0075
vn -0.0193 -0.0410 0.9990
vn -0.0000 0.0002 -1.0000
vn -0.9989 -0.0410 -0.0221
vn -0.9999 0.0102 -0.0000
vn -0.0059 -1.0000 0.0014
vn 0.0004 -1.0000 0.0058
vn 0.0007 -1.0000 -0.0092
vn -0.0089 -1.0000 0.0007
vn -1.0000 0.0021 -0.0000
vn 0.0193 -0.0408 -0.9990
vn 1.0000 -0.0021 -0.0000
vn 0.9989 -0.0409 0.0209
vn 0.9999 -0.0013 0.0113
vn -0.0000 -0.0002 1.0000
vn 0.0028 0.0328 -0.9995
vn 0.0040 -0.0026 1.0000
vn -0.0002 -0.0013 1.0000
vn 1.0000 0.0017 -0.0017
vn 0.0019 -1.0000 -0.0091
vn 1.0000 0.0028 0.0004
vn 0.0033 0.0015 1.0000
vn -0.0000 -0.0030 -1.0000
vn 0.0011 -1.0000 0.0058
vn 0.0005 0.0038 -1.0000
vn -1.0000 0.0016 -0.0000
vn -0.0091 -1.0000 0.0040
vt 0.625000 0.500000
vt 0.375000 0.500000
vt 0.625000 0.750000
vt 0.375000 0.750000
vt 0.875000 0.500000
vt 0.625000 0.250000
vt 0.125000 0.500000
vt 0.375000 0.250000
vt 0.875000 0.750000
vt 0.625000 1.000000
vt 0.625000 0.000000
vt 0.375000 0.000000
vt 0.125000 0.750000
vt 0.375000 1.000000
vt 0.610320 0.500000
vt 0.610320 0.000000
vt 0.610320 1.000000
vt 0.610320 0.750000
vt 0.610320 0.250000
vt 0.611180 0.000000
vt 0.611180 1.000000
vt 0.611180 0.500000
vt 0.611180 0.750000
vt 0.611180 0.250000
vt 0.155822 0.750000
vt 0.375000 0.969178
vt 0.375000 0.280822
vt 0.155822 0.500000
vt 0.375000 0.722079
vt 0.375000 0.027921
vt 0.125000 0.722079
vt 0.155822 0.722079
vt 0.344917 0.500000
vt 0.375000 0.469917
vt 0.155822 0.526684
vt 0.375000 0.780083
vt 0.344917 0.750000
vt 0.344917 0.722079
vt 0.375000 0.526684
vt 0.125000 0.526684
vt 0.375000 0.223316
vt 0.344917 0.526684
vt 0.344917 0.500000
vt 0.586754 0.469437
vt 0.155822 0.500000
vt 0.586003 0.281448
vt 0.125000 0.526684
vt 0.585967 0.223080
vt 0.125000 0.722079
vt 0.586900 0.028516
vt 0.610320 0.779805
vt 0.610320 0.721996
vt 0.155822 0.750000
vt 0.585823 0.969083
vt 0.610320 0.526448
vt 0.375000 0.722079
vt 0.586558 0.722134
vt 0.344917 0.750000
vt 0.586726 0.779420
vt 0.375000 0.526684
vt 0.585801 0.526481
vt 0.610320 0.969135
vt 0.155822 0.513342
vt 0.359958 0.526684
vt 0.359958 0.722079
vt 0.344917 0.736040
vt 0.344917 0.513342
vt 0.155822 0.736040
vt 0.140411 0.526684
vt 0.140411 0.722079
vt 0.140411 0.722079
vt 0.155822 0.722079
vt 0.155822 0.736040
vt 0.155822 0.526684
vt 0.344917 0.722079
vt 0.359958 0.526684
vt 0.344917 0.526684
vt 0.344917 0.736040
vt 0.155822 0.513342
vt 0.359958 0.722079
vt 0.344917 0.513342
vt 0.140411 0.526684
vt 0.610320 0.281451
vt 0.610320 0.469961
vt 0.610320 0.028517
vt 0.610320 0.223020
vt 0.585967 0.223080
vt 0.128416 0.526684
vt 0.586900 0.028516
vt 0.127767 0.722079
vt 0.610320 0.028517
vt 0.610320 0.223020
vt 0.585823 0.969083
vt 0.155822 0.746428
vt 0.586726 0.779420
vt 0.344917 0.746120
vt 0.610320 0.779805
vt 0.610320 0.969135
vt 0.371897 0.722079
vt 0.586558 0.722134
vt 0.610320 0.721996
vt 0.372222 0.526684
vt 0.585801 0.526481
vt 0.610320 0.526448
vt 0.344917 0.503056
vt 0.586754 0.469437
vt 0.155822 0.502747
vt 0.586003 0.281448
vt 0.610320 0.281451
vt 0.610320 0.469961
s 0
usemtl Material
f 1/1/1 5/5/1 7/9/1 3/3/1
f 15/23/2 3/3/2 7/10/2 13/21/2
f 13/20/3 7/11/3 5/6/3 16/24/3
f 6/7/4 18/28/4 23/35/4 27/40/4
f 14/22/5 1/1/5 3/3/5 15/23/5
f 16/24/6 5/6/6 1/1/6 14/22/6
f 6/8/7 12/19/7 61/83/7 30/46/7 18/27/7
f 2/2/8 9/15/8 36/55/8 39/61/8 26/39/8
f 8/12/9 10/16/9 63/85/9 32/50/9 20/30/9
f 4/4/10 11/18/10 33/51/10 38/59/10 24/36/10
f 12/19/11 16/24/11 14/22/11 9/15/11 62/84/11 61/83/11
f 9/15/12 14/22/12 15/23/12 11/18/12 34/52/12 36/55/12
f 10/16/13 13/20/13 16/24/13 12/19/13 64/86/13 63/85/13
f 11/18/14 15/23/14 13/21/14 10/17/14 40/62/14 33/51/14
f 20/31/4 21/32/4 17/25/4 8/13/4
f 44/66/15 56/78/15 53/75/15 25/38/15 24/37/15 38/58/15 70/96/15
f 28/42/16 55/77/16 59/81/16 45/67/16 77/105/16 29/43/16 22/33/16
f 26/39/4 28/42/4 22/33/4 2/2/4
f 25/38/17 53/75/17 58/80/17 43/65/17 73/99/17 37/56/17 19/29/17
f 24/37/4 25/38/4 19/29/4 4/4/4
f 75/102/18 73/99/18 43/65/18 42/64/18
f 42/64/19 54/76/19 55/77/19 28/42/19 26/39/19 39/60/19 75/102/19
f 66/89/20 67/91/20 68/92/20 65/87/20
f 23/35/21 52/74/21 60/82/21 47/69/21 65/88/21 31/47/21 27/40/21
f 41/63/22 57/79/22 52/74/22 23/35/22 18/28/22 30/45/22 78/107/22
f 21/32/23 50/72/23 51/73/23 46/68/23 69/94/23 35/53/23 17/25/23
f 52/74/4 55/77/4 53/75/4 50/72/4
f 35/54/24 40/62/24 10/17/24 8/14/24 17/26/24
f 44/66/25 46/68/25 51/73/25 56/78/25
f 31/48/26 64/86/26 12/19/26 6/8/26 27/41/26
f 38/59/27 33/51/27 71/97/27 70/95/27
f 49/71/28 60/82/28 52/74/28 50/72/28
f 57/79/29 59/81/29 55/77/29 52/74/29
f 56/78/30 51/73/30 50/72/30 53/75/30
f 54/76/31 58/80/31 53/75/31 55/77/31
f 36/55/4 34/52/4 74/101/4 76/104/4
f 42/64/32 43/65/32 58/80/32 54/76/32
f 29/44/33 62/84/33 9/15/33 2/2/33 22/34/33
f 48/70/34 47/69/34 60/82/34 49/71/34
f 37/57/35 34/52/35 11/18/35 4/4/35 19/29/35
f 30/46/36 61/83/36 79/109/36 78/108/36
f 41/63/37 45/67/37 59/81/37 57/79/37
f 48/70/38 49/71/38 50/72/38 21/32/38 20/31/38 32/49/38 66/90/38
f 32/50/6 63/85/6 67/91/6 66/89/6
f 63/85/4 64/86/4 68/92/4 67/91/4
f 64/86/39 31/48/39 65/87/39 68/92/39
f 70/95/40 71/97/40 72/98/40 69/93/40
f 33/51/4 40/62/4 72/98/4 71/97/4
f 40/62/41 35/54/41 69/93/41 72/98/41
f 70/96/42 69/94/42 46/68/42 44/66/42
f 75/103/43 76/104/43 74/101/43 73/100/43
f 39/61/44 36/55/44 76/104/44 75/103/44
f 34/52/45 37/57/45 73/100/45 74/101/45
f 78/107/46 77/105/46 45/67/46 41/63/46
f 78/108/47 79/109/47 80/110/47 77/106/47
f 61/83/4 62/84/4 80/110/4 79/109/4
f 62/84/48 29/44/48 77/106/48 80/110/48
f 66/90/49 65/88/49 47/69/49 48/70/49
