# Blender 3.4.1
# www.blender.org
mtllib tv.mtl
o Cube
v 0.037451 0.691428 -0.321705
v 0.037451 0.323765 -0.321705
v 0.037451 0.691428 0.321705
v 0.037451 0.323765 0.321705
v -0.028191 0.665980 -0.246427
v -0.031299 0.342314 -0.246390
v -0.028191 0.665980 0.246427
v -0.031299 0.342314 0.246390
v 0.037451 0.707596 -0.350000
v 0.037451 0.307597 -0.350000
v 0.037451 0.707596 0.350000
v 0.037451 0.307597 0.350000
v 0.035320 0.691428 -0.321705
v 0.035320 0.323765 -0.321705
v 0.035320 0.691428 0.321705
v 0.035320 0.323765 0.321705
v -0.031531 0.342402 -0.246061
v -0.031531 0.342402 0.246060
v -0.045213 0.359092 -0.246061
v -0.045213 0.359092 0.246060
v -0.058373 0.359816 -0.246061
v -0.058373 0.359816 0.246060
v -0.076703 0.380492 -0.246061
v -0.076703 0.380492 0.246060
v -0.084555 0.413970 -0.246061
v -0.084555 0.413970 0.246060
v -0.087022 0.450686 -0.246061
v -0.087022 0.450686 0.246060
v -0.085356 0.488133 -0.246061
v -0.085356 0.488133 0.246060
v -0.081983 0.520014 -0.246061
v -0.081983 0.520014 0.246060
v -0.078309 0.549891 -0.246061
v -0.078309 0.549891 0.246060
v -0.073753 0.582544 -0.246061
v -0.073753 0.582544 0.246060
v -0.066932 0.616022 -0.246061
v -0.066932 0.616022 0.246060
v -0.048081 0.643333 -0.246061
v -0.048081 0.643333 0.246060
v -0.038343 0.646164 -0.246061
v -0.038343 0.646164 0.246060
v -0.028629 0.666345 -0.246061
v -0.028629 0.666345 0.246060
v 0.018069 0.709217 -0.350606
v 0.018069 0.709217 0.350606
v 0.017845 0.305490 0.350604
v 0.017845 0.305490 -0.350604
v -0.086152 0.432328 -0.246061
v -0.086152 0.432328 0.246060
v -0.080811 0.397231 -0.246061
v -0.080811 0.397231 0.246060
v -0.067538 0.370154 -0.246061
v -0.067538 0.370154 0.246060
v -0.086371 0.469410 -0.246061
v -0.086371 0.469410 0.246060
v -0.083670 0.504074 -0.246061
v -0.083670 0.504074 0.246060
v -0.080146 0.534953 -0.246061
v -0.080146 0.534953 0.246060
v -0.076031 0.566218 -0.246061
v -0.076031 0.566217 0.246060
v -0.070342 0.599283 -0.246061
v -0.070342 0.599283 0.246060
v -0.057506 0.629677 -0.246061
v -0.057506 0.629677 0.246060
vn 0.0833 0.9965 -0.0000
vn -0.3564 0.9343 -0.0000
vn 0.0310 -0.0000 0.9995
vn -0.7081 0.0033 0.7061
vn -0.7146 0.0033 0.6996
vn -0.5050 -0.8631 -0.0000
vn -0.2758 -0.9612 -0.0000
vn -0.0000 -1.0000 -0.0000
vn -0.8511 0.0051 -0.5249
vn -0.7081 0.0033 -0.7061
vn -0.7146 0.0033 -0.6996
vn 1.0000 -0.0000 -0.0000
vn -0.0000 -0.0000 1.0000
vn -0.0000 1.0000 -0.0000
vn -0.0000 -0.0000 -1.0000
vn -0.4823 0.0044 0.8760
vn -0.5003 0.0046 0.8658
vn -0.6128 -0.7902 -0.0000
vn -0.5331 -0.8461 -0.0000
vn -0.5054 -0.8629 -0.0000
vn -0.7483 -0.6634 -0.0000
vn -0.9258 -0.3780 -0.0000
vn -0.9736 -0.2281 -0.0000
vn -0.9898 -0.1422 -0.0000
vn -0.9978 -0.0664 -0.0000
vn -1.0000 -0.0060 -0.0000
vn -0.9990 0.0443 -0.0000
vn -0.9969 0.0785 -0.0000
vn -0.9945 0.1052 -0.0000
vn -0.9935 0.1135 -0.0000
vn -0.9925 0.1221 -0.0000
vn -0.9915 0.1300 -0.0000
vn -0.9904 0.1382 -0.0000
vn -0.9860 0.1666 -0.0000
vn -0.9799 0.1997 -0.0000
vn -0.9469 0.3215 -0.0000
vn -0.8230 0.5680 -0.0000
vn -0.6520 0.7582 -0.0000
vn -0.7555 0.6551 -0.0000
vn -0.9010 0.4337 -0.0000
vn -0.4990 0.0046 -0.8666
vn -0.4811 0.0044 -0.8767
vn -0.1337 0.9910 -0.0000
vn 0.6410 0.7675 -0.0000
vn -0.1338 0.9910 -0.0000
vn -0.8514 0.0051 0.5245
vn 0.0310 -0.0000 -0.9995
vn 0.1068 -0.9943 -0.0000
vt 0.615445 0.065021
vt 0.616948 0.616129
vt 0.077130 0.071881
vt 0.066438 0.599246
vt 0.375616 0.309901
vt 0.375025 0.373205
vt 0.315015 0.307863
vt 0.311372 0.377155
vt 0.592447 0.091427
vt 0.590306 0.592217
vt 0.102133 0.094247
vt 0.089421 0.573838
vt 0.732031 0.049992
vt 0.632047 0.049992
vt 0.732031 0.267969
vt 0.632047 0.633324
vt 0.950008 0.049992
vt 0.062914 0.055826
vt 0.950008 0.267969
vt 0.049992 0.613644
vt 0.374782 0.372962
vt 0.311647 0.376877
vt 0.364131 0.360831
vt 0.324073 0.361811
vt 0.356470 0.353752
vt 0.332765 0.353316
vt 0.350281 0.348232
vt 0.339327 0.347729
vt 0.349146 0.346276
vt 0.340511 0.345867
vt 0.348959 0.345096
vt 0.340753 0.344716
vt 0.349380 0.343941
vt 0.340401 0.343558
vt 0.350089 0.342647
vt 0.339770 0.342244
vt 0.350928 0.341160
vt 0.339009 0.340710
vt 0.351868 0.339176
vt 0.338166 0.338660
vt 0.352997 0.336337
vt 0.337148 0.335691
vt 0.360267 0.327694
vt 0.330132 0.326764
vt 0.366778 0.320696
vt 0.323878 0.319928
vt 0.375116 0.310385
vt 0.315508 0.308335
vt 0.472684 0.206801
vt 0.212290 0.207823
vt 0.202229 0.464733
vt 0.474070 0.474252
vt 0.349018 0.345644
vt 0.340665 0.345264
vt 0.349751 0.347085
vt 0.339857 0.346662
vt 0.352916 0.350350
vt 0.336544 0.349878
vt 0.349144 0.344536
vt 0.340603 0.344168
vt 0.349731 0.343332
vt 0.340091 0.342951
vt 0.350493 0.341926
vt 0.339405 0.341506
vt 0.351497 0.340217
vt 0.338486 0.339741
vt 0.352644 0.337848
vt 0.337470 0.337306
vt 0.356166 0.332690
vt 0.334173 0.332058
s 1
usemtl Material
f 9/9/1 45/49/2 46/50/2 11/11/1
f 12/12/3 11/11/3 46/50/4 47/51/5
f 6/6/6 48/52/7 47/51/7 8/8/6
f 1/1/8 3/3/8 15/18/8 13/14/8
f 6/6/9 5/5/9 45/49/10 48/52/11
f 1/1/12 2/2/12 10/10/12 9/9/12
f 4/4/12 3/3/12 11/11/12 12/12/12
f 3/3/12 1/1/12 9/9/12 11/11/12
f 2/2/12 4/4/12 12/12/12 10/10/12
f 14/15/12 13/13/12 15/17/12 16/19/12
f 2/2/13 1/1/13 13/14/13 14/16/13
f 4/4/14 2/2/14 14/16/14 16/20/14
f 3/3/15 4/4/15 16/20/15 15/18/15
f 18/22/16 44/48/17 42/46/13 40/44/13 66/70/13 38/42/13 64/68/13 36/40/13 62/66/13 34/38/13 60/64/13 32/36/13 58/62/13 30/34/13 56/60/13 28/32/13 50/54/13 26/30/13 52/56/13 24/28/13 54/58/13 22/26/13 20/24/13
f 17/21/18 18/22/18 20/24/19 19/23/19
f 19/23/19 20/24/19 22/26/20 21/25/20
f 53/57/21 54/58/21 24/28/22 23/27/22
f 51/55/23 52/56/23 26/30/24 25/29/24
f 49/53/25 50/54/25 28/32/26 27/31/26
f 55/59/27 56/60/27 30/34/28 29/33/28
f 57/61/29 58/62/29 32/36/30 31/35/30
f 59/63/31 60/64/31 34/38/32 33/37/32
f 61/65/33 62/66/33 36/40/34 35/39/34
f 63/67/35 64/68/35 38/42/36 37/41/36
f 65/69/37 66/70/37 40/44/38 39/43/38
f 39/43/38 40/44/38 42/46/39 41/45/39
f 41/45/39 42/46/39 44/48/40 43/47/40
f 43/47/41 17/21/42 19/23/15 21/25/15 53/57/15 23/27/15 51/55/15 25/29/15 49/53/15 27/31/15 55/59/15 29/33/15 57/61/15 31/35/15 59/63/15 33/37/15 61/65/15 35/39/15 63/67/15 37/41/15 65/69/15 39/43/15 41/45/15
f 5/5/43 43/47/44 44/48/44 7/7/45
f 6/6/9 17/21/42 43/47/41 5/5/9
f 6/6/6 8/8/6 18/22/18 17/21/18
f 8/8/46 7/7/46 44/48/17 18/22/16
f 48/52/11 45/49/10 9/9/47 10/10/47
f 47/51/5 46/50/4 7/7/46 8/8/46
f 47/51/7 48/52/7 10/10/48 12/12/48
f 46/50/2 45/49/2 5/5/43 7/7/45
f 25/29/24 26/30/24 50/54/25 49/53/25
f 23/27/22 24/28/22 52/56/23 51/55/23
f 21/25/20 22/26/20 54/58/21 53/57/21
f 27/31/26 28/32/26 56/60/27 55/59/27
f 29/33/28 30/34/28 58/62/29 57/61/29
f 31/35/30 32/36/30 60/64/31 59/63/31
f 33/37/32 34/38/32 62/66/33 61/65/33
f 35/39/34 36/40/34 64/68/35 63/67/35
f 37/41/36 38/42/36 66/70/37 65/69/37
